<svg width="285" height="60" viewBox="0 0 285 60" fill="none" xmlns="http://www.w3.org/2000/svg">
<path d="M85.8 18.8H86.62C86.6733 19.0133 86.72 19.2733 86.76 19.58C86.8133 19.8733 86.8533 20.1933 86.88 20.54C86.92 20.8733 86.9467 21.2067 86.96 21.54C86.9733 21.8733 86.98 22.1733 86.98 22.44C86.5133 22.7333 85.9267 22.94 85.22 23.06C84.5267 23.18 83.8133 23.24 83.08 23.24C81.9733 23.24 80.9667 23.1067 80.06 22.84C79.1667 22.56 78.4 22.1267 77.76 21.54C77.1333 20.94 76.6467 20.1867 76.3 19.28C75.9533 18.36 75.78 17.26 75.78 15.98C75.78 14.7133 75.9667 13.6267 76.34 12.72C76.7267 11.8 77.24 11.0467 77.88 10.46C78.52 9.87333 79.26 9.44667 80.1 9.18C80.9533 8.9 81.8467 8.76 82.78 8.76C83.66 8.76 84.4533 8.82667 85.16 8.96C85.88 9.08 86.4667 9.24667 86.92 9.46C86.92 9.67333 86.9067 9.94667 86.88 10.28C86.8667 10.6133 86.8333 10.9667 86.78 11.34C86.74 11.7 86.6867 12.06 86.62 12.42C86.5667 12.7667 86.5133 13.06 86.46 13.3H85.62L84.52 10.28C84.4 10.2133 84.2067 10.16 83.94 10.12C83.6733 10.08 83.4 10.06 83.12 10.06C82.5733 10.06 82.06 10.1733 81.58 10.4C81.1 10.6133 80.6733 10.96 80.3 11.44C79.9267 11.92 79.6333 12.54 79.42 13.3C79.2067 14.0467 79.1 14.9467 79.1 16C79.1 17.9067 79.48 19.3733 80.24 20.4C81 21.4267 82.0333 21.94 83.34 21.94C83.7133 21.94 84.0267 21.9133 84.28 21.86C84.5467 21.7933 84.7267 21.7067 84.82 21.6L85.8 18.8ZM97.4469 20.1C97.4469 20.3933 97.4469 20.6467 97.4469 20.86C97.4602 21.0733 97.4802 21.3 97.5069 21.54L98.8869 21.74V22.44C98.7269 22.52 98.5069 22.6 98.2269 22.68C97.9602 22.76 97.6735 22.84 97.3669 22.92C97.0735 22.9867 96.7802 23.04 96.4869 23.08C96.1935 23.1333 95.9335 23.1733 95.7069 23.2H95.0269C94.8935 22.8933 94.8135 22.5867 94.7869 22.28C94.7602 21.9733 94.7402 21.6 94.7269 21.16H94.6269C94.5602 21.4267 94.4469 21.6867 94.2869 21.94C94.1269 22.18 93.9202 22.4 93.6669 22.6C93.4269 22.7867 93.1402 22.94 92.8069 23.06C92.4735 23.18 92.1002 23.24 91.6869 23.24C91.2469 23.24 90.8402 23.1733 90.4669 23.04C90.0935 22.9067 89.7669 22.72 89.4869 22.48C89.2069 22.24 88.9869 21.9533 88.8269 21.62C88.6669 21.2733 88.5869 20.8867 88.5869 20.46C88.5869 19.86 88.7002 19.3667 88.9269 18.98C89.1535 18.5933 89.5069 18.28 89.9869 18.04C90.4802 17.7867 91.1069 17.6 91.8669 17.48C92.6402 17.36 93.5735 17.2733 94.6669 17.22C94.7735 16.0733 94.7269 15.2333 94.5269 14.7C94.3269 14.1667 93.8935 13.9 93.2269 13.9C92.8135 13.9 92.4335 13.9667 92.0869 14.1L91.1469 16.5H90.2669C90.1602 16.34 90.0535 16.16 89.9469 15.96C89.8535 15.7467 89.7602 15.5267 89.6669 15.3C89.5869 15.06 89.5135 14.82 89.4469 14.58C89.3935 14.34 89.3535 14.1067 89.3269 13.88C89.8335 13.5333 90.4869 13.26 91.2869 13.06C92.0869 12.86 92.9335 12.76 93.8269 12.76C94.5869 12.76 95.2069 12.8467 95.6869 13.02C96.1669 13.18 96.5402 13.4067 96.8069 13.7C97.0869 13.98 97.2802 14.3133 97.3869 14.7C97.4935 15.0867 97.5469 15.5 97.5469 15.94C97.5469 16.74 97.5269 17.4667 97.4869 18.12C97.4602 18.76 97.4469 19.42 97.4469 20.1ZM92.9469 21.64C93.2269 21.64 93.4669 21.5867 93.6669 21.48C93.8669 21.3733 94.0335 21.2467 94.1669 21.1C94.3135 20.9533 94.4202 20.7933 94.4869 20.62C94.5669 20.4467 94.6269 20.2933 94.6669 20.16V18.16C94.0402 18.1733 93.5269 18.2133 93.1269 18.28C92.7269 18.3467 92.4135 18.46 92.1869 18.62C91.9602 18.7667 91.8002 18.96 91.7069 19.2C91.6269 19.4267 91.5869 19.7067 91.5869 20.04C91.5869 20.5467 91.7069 20.94 91.9469 21.22C92.1869 21.5 92.5202 21.64 92.9469 21.64ZM109.8 27H104.36V26.22C104.733 26.0067 105.173 25.8467 105.68 25.74V22.58C105.52 22.78 105.273 22.94 104.94 23.06C104.606 23.18 104.273 23.24 103.94 23.24C103.326 23.24 102.76 23.1467 102.24 22.96C101.733 22.76 101.293 22.46 100.92 22.06C100.546 21.66 100.253 21.1533 100.04 20.54C99.8397 19.9267 99.7397 19.2 99.7397 18.36C99.7397 17.4 99.8464 16.5733 100.06 15.88C100.273 15.1733 100.573 14.5933 100.96 14.14C101.346 13.6733 101.806 13.3267 102.34 13.1C102.886 12.8733 103.493 12.76 104.16 12.76C104.493 12.76 104.8 12.8133 105.08 12.92C105.36 13.0133 105.56 13.14 105.68 13.3V9.62L104.16 9.46V8.68C104.346 8.6 104.6 8.52 104.92 8.44C105.24 8.36 105.573 8.28667 105.92 8.22C106.28 8.15333 106.626 8.1 106.96 8.06C107.293 8.00667 107.573 7.97333 107.8 7.96H108.48V13.42C108.666 13.22 108.926 13.06 109.26 12.94C109.606 12.82 109.966 12.76 110.34 12.76C110.94 12.76 111.486 12.8533 111.98 13.04C112.486 13.2267 112.92 13.5133 113.28 13.9C113.64 14.2867 113.92 14.7733 114.12 15.36C114.32 15.9333 114.42 16.6133 114.42 17.4C114.42 18.4133 114.306 19.2867 114.08 20.02C113.866 20.7533 113.566 21.36 113.18 21.84C112.793 22.32 112.333 22.6733 111.8 22.9C111.266 23.1267 110.693 23.24 110.08 23.24C109.786 23.24 109.486 23.1933 109.18 23.1C108.873 23.02 108.64 22.8933 108.48 22.72V25.74C108.973 25.82 109.413 25.98 109.8 26.22V27ZM104.64 21.98C104.866 21.98 105.066 21.9533 105.24 21.9C105.413 21.8333 105.593 21.7067 105.78 21.52V14.36C105.62 14.2533 105.453 14.1733 105.28 14.12C105.106 14.0533 104.886 14.02 104.62 14.02C104.353 14.02 104.106 14.08 103.88 14.2C103.653 14.32 103.453 14.52 103.28 14.8C103.106 15.0667 102.973 15.4267 102.88 15.88C102.786 16.3333 102.74 16.9 102.74 17.58C102.74 18.4867 102.786 19.2267 102.88 19.8C102.973 20.36 103.1 20.8067 103.26 21.14C103.433 21.46 103.633 21.68 103.86 21.8C104.1 21.92 104.36 21.98 104.64 21.98ZM109.5 14.02C109.273 14.02 109.073 14.0533 108.9 14.12C108.74 14.1733 108.566 14.28 108.38 14.44V21.62C108.54 21.7533 108.706 21.8467 108.88 21.9C109.053 21.9533 109.273 21.98 109.54 21.98C109.78 21.98 110.013 21.92 110.24 21.8C110.466 21.68 110.666 21.4733 110.84 21.18C111.013 20.8733 111.153 20.4733 111.26 19.98C111.366 19.4867 111.42 18.86 111.42 18.1C111.42 17.2867 111.373 16.6133 111.28 16.08C111.2 15.5467 111.08 15.1333 110.92 14.84C110.76 14.5333 110.56 14.32 110.32 14.2C110.08 14.08 109.806 14.02 109.5 14.02ZM124.4 20.1C124.4 20.3933 124.4 20.6467 124.4 20.86C124.413 21.0733 124.433 21.3 124.46 21.54L125.84 21.74V22.44C125.68 22.52 125.46 22.6 125.18 22.68C124.913 22.76 124.627 22.84 124.32 22.92C124.027 22.9867 123.733 23.04 123.44 23.08C123.147 23.1333 122.887 23.1733 122.66 23.2H121.98C121.847 22.8933 121.767 22.5867 121.74 22.28C121.713 21.9733 121.693 21.6 121.68 21.16H121.58C121.513 21.4267 121.4 21.6867 121.24 21.94C121.08 22.18 120.873 22.4 120.62 22.6C120.38 22.7867 120.093 22.94 119.76 23.06C119.427 23.18 119.053 23.24 118.64 23.24C118.2 23.24 117.793 23.1733 117.42 23.04C117.047 22.9067 116.72 22.72 116.44 22.48C116.16 22.24 115.94 21.9533 115.78 21.62C115.62 21.2733 115.54 20.8867 115.54 20.46C115.54 19.86 115.653 19.3667 115.88 18.98C116.107 18.5933 116.46 18.28 116.94 18.04C117.433 17.7867 118.06 17.6 118.82 17.48C119.593 17.36 120.527 17.2733 121.62 17.22C121.727 16.0733 121.68 15.2333 121.48 14.7C121.28 14.1667 120.847 13.9 120.18 13.9C119.767 13.9 119.387 13.9667 119.04 14.1L118.1 16.5H117.22C117.113 16.34 117.007 16.16 116.9 15.96C116.807 15.7467 116.713 15.5267 116.62 15.3C116.54 15.06 116.467 14.82 116.4 14.58C116.347 14.34 116.307 14.1067 116.28 13.88C116.787 13.5333 117.44 13.26 118.24 13.06C119.04 12.86 119.887 12.76 120.78 12.76C121.54 12.76 122.16 12.8467 122.64 13.02C123.12 13.18 123.493 13.4067 123.76 13.7C124.04 13.98 124.233 14.3133 124.34 14.7C124.447 15.0867 124.5 15.5 124.5 15.94C124.5 16.74 124.48 17.4667 124.44 18.12C124.413 18.76 124.4 19.42 124.4 20.1ZM119.9 21.64C120.18 21.64 120.42 21.5867 120.62 21.48C120.82 21.3733 120.987 21.2467 121.12 21.1C121.267 20.9533 121.373 20.7933 121.44 20.62C121.52 20.4467 121.58 20.2933 121.62 20.16V18.16C120.993 18.1733 120.48 18.2133 120.08 18.28C119.68 18.3467 119.367 18.46 119.14 18.62C118.913 18.7667 118.753 18.96 118.66 19.2C118.58 19.4267 118.54 19.7067 118.54 20.04C118.54 20.5467 118.66 20.94 118.9 21.22C119.14 21.5 119.473 21.64 119.9 21.64ZM132.073 27H126.553V26.22C127.006 26.0067 127.446 25.8467 127.873 25.74V14.42L126.553 14.26V13.48C126.766 13.3867 127.026 13.3 127.333 13.22C127.653 13.14 127.979 13.0733 128.313 13.02C128.646 12.9533 128.966 12.9 129.273 12.86C129.593 12.82 129.859 12.7867 130.073 12.76H130.753V15H130.773C130.999 14.36 131.353 13.8267 131.833 13.4C132.326 12.9733 133.006 12.76 133.873 12.76C134.459 12.76 134.986 12.86 135.453 13.06C135.933 13.2467 136.333 13.5467 136.653 13.96C136.986 14.36 137.239 14.88 137.413 15.52C137.599 16.1467 137.693 16.9 137.693 17.78C137.693 18.62 137.573 19.38 137.333 20.06C137.106 20.74 136.773 21.3133 136.333 21.78C135.906 22.2467 135.379 22.6067 134.753 22.86C134.139 23.1133 133.439 23.24 132.653 23.24C132.199 23.24 131.839 23.2067 131.573 23.14C131.319 23.0867 131.046 22.9867 130.753 22.84V25.74C130.966 25.7667 131.179 25.8133 131.393 25.88C131.606 25.96 131.833 26.0733 132.073 26.22V27ZM132.713 14.36C132.259 14.36 131.853 14.52 131.493 14.84C131.146 15.16 130.899 15.6533 130.753 16.32V21.64C130.966 21.8 131.193 21.92 131.433 22C131.673 22.0667 131.986 22.1 132.373 22.1C133.133 22.1 133.693 21.7333 134.053 21C134.413 20.2667 134.593 19.1933 134.593 17.78C134.593 16.6867 134.453 15.8467 134.173 15.26C133.906 14.66 133.419 14.36 132.713 14.36ZM138.9 13H144.22V13.78C144.074 13.86 143.9 13.94 143.7 14.02C143.514 14.1 143.287 14.18 143.02 14.26V18.76L142.8 20.62H142.9L143.68 19.12L147.34 13H151.12V13.78C150.694 14.02 150.254 14.18 149.8 14.26V21.74C150.054 21.8067 150.294 21.88 150.52 21.96C150.747 22.0267 150.947 22.1133 151.12 22.22V23H145.8V22.22C146.174 22.0067 146.574 21.8467 147 21.74V17.02L147.2 15.44H147.1L146.34 16.94L142.72 23H138.9V22.22C139.127 22.1133 139.347 22.0267 139.56 21.96C139.774 21.88 139.994 21.8067 140.22 21.74V14.26C139.7 14.18 139.26 14.02 138.9 13.78V13ZM167.19 23H160.31V22.24C160.577 22.1333 160.877 22.0267 161.21 21.92C161.557 21.8 161.903 21.7133 162.25 21.66V10.3H159.93L158.65 13.72H157.83C157.777 13.4533 157.723 13.1133 157.67 12.7C157.617 12.2867 157.57 11.86 157.53 11.42C157.49 10.98 157.457 10.5467 157.43 10.12C157.403 9.68 157.39 9.30667 157.39 9H170.11C170.11 9.32 170.097 9.69333 170.07 10.12C170.043 10.5467 170.01 10.98 169.97 11.42C169.93 11.86 169.883 12.2867 169.83 12.7C169.777 13.1 169.723 13.44 169.67 13.72H168.85L167.57 10.3H165.25V21.66C165.597 21.7267 165.937 21.8067 166.27 21.9C166.617 21.9933 166.923 22.1067 167.19 22.24V23ZM180.79 10.34C180.47 10.2733 180.19 10.1933 179.95 10.1C179.71 9.99333 179.477 9.88 179.25 9.76V9H184.09V9.76C183.943 9.86667 183.743 9.97333 183.49 10.08C183.25 10.1733 182.977 10.26 182.67 10.34L178.85 18.98C178.21 20.4467 177.543 21.54 176.85 22.26C176.157 22.9667 175.417 23.2467 174.63 23.1C174.523 22.9933 174.41 22.8333 174.29 22.62C174.183 22.3933 174.077 22.16 173.97 21.92C173.877 21.6667 173.797 21.4267 173.73 21.2C173.663 20.96 173.623 20.76 173.61 20.6L174.17 19.8L176.55 20.54C176.657 20.42 176.757 20.2733 176.85 20.1C176.943 19.9267 177.03 19.7333 177.11 19.52L171.79 10.34C171.537 10.2733 171.29 10.1933 171.05 10.1C170.823 9.99333 170.61 9.88 170.41 9.76V9H176.65V9.76C176.25 10 175.743 10.1933 175.13 10.34L177.95 15.76L178.37 17.04H178.41L178.81 15.72L180.79 10.34ZM189.122 21.66C189.482 21.7133 189.835 21.7933 190.182 21.9C190.542 21.9933 190.862 22.1067 191.142 22.24V23H184.482V22.24C184.735 22.0933 185.002 21.9733 185.282 21.88C185.575 21.7867 185.855 21.7133 186.122 21.66V10.34C185.815 10.2867 185.522 10.2133 185.242 10.12C184.962 10.0133 184.709 9.89333 184.482 9.76V9H187.002C187.535 9 188.142 8.97333 188.822 8.92C189.515 8.86667 190.149 8.84 190.722 8.84C191.429 8.84 192.115 8.91333 192.782 9.06C193.462 9.19333 194.062 9.42667 194.582 9.76C195.115 10.0933 195.542 10.54 195.862 11.1C196.182 11.6467 196.342 12.3333 196.342 13.16C196.342 13.9467 196.182 14.6267 195.862 15.2C195.555 15.7733 195.142 16.2467 194.622 16.62C194.102 16.9933 193.502 17.2733 192.822 17.46C192.142 17.6333 191.442 17.72 190.722 17.72C190.655 17.72 190.549 17.72 190.402 17.72C190.255 17.72 190.095 17.72 189.922 17.72C189.762 17.7067 189.602 17.7 189.442 17.7C189.295 17.6867 189.189 17.6733 189.122 17.66V21.66ZM190.202 10.14C189.935 10.14 189.722 10.1533 189.562 10.18C189.415 10.1933 189.269 10.22 189.122 10.26V16.34C189.242 16.38 189.422 16.4067 189.662 16.42C189.902 16.42 190.095 16.42 190.242 16.42C190.602 16.42 190.949 16.36 191.282 16.24C191.615 16.12 191.909 15.9333 192.162 15.68C192.429 15.4267 192.642 15.1 192.802 14.7C192.962 14.3 193.042 13.82 193.042 13.26C193.042 12.1933 192.782 11.4067 192.262 10.9C191.742 10.3933 191.055 10.14 190.202 10.14ZM203.295 23H197.275V22.24C197.528 22.1067 197.795 21.9867 198.075 21.88C198.355 21.7733 198.635 21.7 198.915 21.66V10.34C198.648 10.2733 198.368 10.2 198.075 10.12C197.782 10.0267 197.515 9.90667 197.275 9.76V9H203.295V9.76C203.095 9.88 202.868 9.99333 202.615 10.1C202.362 10.2067 202.088 10.2867 201.795 10.34V17.94L201.595 19.5L202.575 17.86L207.615 10.82V10.34C206.988 10.1933 206.462 10 206.035 9.76V9H212.055V9.76C211.828 9.90667 211.568 10.0267 211.275 10.12C210.995 10.2 210.708 10.2733 210.415 10.34V21.66C210.722 21.7133 211.008 21.7933 211.275 21.9C211.555 21.9933 211.815 22.1067 212.055 22.24V23H206.035V22.24C206.222 22.1467 206.442 22.0467 206.695 21.94C206.962 21.82 207.242 21.7267 207.535 21.66V14.08L207.735 12.5L206.835 14.08L201.715 21.22V21.66C202.022 21.7267 202.308 21.8133 202.575 21.92C202.842 22.0267 203.082 22.1333 203.295 22.24V23ZM223.261 18.8H224.081C224.134 19.0133 224.181 19.2733 224.221 19.58C224.274 19.8733 224.314 20.1933 224.341 20.54C224.381 20.8733 224.408 21.2067 224.421 21.54C224.434 21.8733 224.441 22.1733 224.441 22.44C223.974 22.7333 223.388 22.94 222.681 23.06C221.988 23.18 221.274 23.24 220.541 23.24C219.434 23.24 218.428 23.1067 217.521 22.84C216.628 22.56 215.861 22.1267 215.221 21.54C214.594 20.94 214.108 20.1867 213.761 19.28C213.414 18.36 213.241 17.26 213.241 15.98C213.241 14.7133 213.428 13.6267 213.801 12.72C214.188 11.8 214.701 11.0467 215.341 10.46C215.981 9.87333 216.721 9.44667 217.561 9.18C218.414 8.9 219.308 8.76 220.241 8.76C221.121 8.76 221.914 8.82667 222.621 8.96C223.341 9.08 223.928 9.24667 224.381 9.46C224.381 9.67333 224.368 9.94667 224.341 10.28C224.328 10.6133 224.294 10.9667 224.241 11.34C224.201 11.7 224.148 12.06 224.081 12.42C224.028 12.7667 223.974 13.06 223.921 13.3H223.081L221.981 10.28C221.861 10.2133 221.668 10.16 221.401 10.12C221.134 10.08 220.861 10.06 220.581 10.06C220.034 10.06 219.521 10.1733 219.041 10.4C218.561 10.6133 218.134 10.96 217.761 11.44C217.388 11.92 217.094 12.54 216.881 13.3C216.668 14.0467 216.561 14.9467 216.561 16C216.561 17.9067 216.941 19.3733 217.701 20.4C218.461 21.4267 219.494 21.94 220.801 21.94C221.174 21.94 221.488 21.9133 221.741 21.86C222.008 21.7933 222.188 21.7067 222.281 21.6L223.261 18.8ZM235.608 23H228.728V22.24C228.994 22.1333 229.294 22.0267 229.628 21.92C229.974 21.8 230.321 21.7133 230.668 21.66V10.3H228.348L227.068 13.72H226.248C226.194 13.4533 226.141 13.1133 226.088 12.7C226.034 12.2867 225.988 11.86 225.948 11.42C225.908 10.98 225.874 10.5467 225.848 10.12C225.821 9.68 225.808 9.30667 225.808 9H238.528C238.528 9.32 238.514 9.69333 238.488 10.12C238.461 10.5467 238.428 10.98 238.388 11.42C238.348 11.86 238.301 12.2867 238.248 12.7C238.194 13.1 238.141 13.44 238.088 13.72H237.268L235.988 10.3H233.668V21.66C234.014 21.7267 234.354 21.8067 234.688 21.9C235.034 21.9933 235.341 22.1067 235.608 22.24V23ZM245.248 23H239.228V22.24C239.481 22.1067 239.748 21.9867 240.028 21.88C240.308 21.7733 240.588 21.7 240.868 21.66V10.34C240.601 10.2733 240.321 10.2 240.028 10.12C239.735 10.0267 239.468 9.90667 239.228 9.76V9H245.248V9.76C245.048 9.88 244.821 9.99333 244.568 10.1C244.315 10.2067 244.041 10.2867 243.748 10.34V17.94L243.548 19.5L244.528 17.86L249.568 10.82V10.34C248.941 10.1933 248.415 10 247.988 9.76V9H254.008V9.76C253.781 9.90667 253.521 10.0267 253.228 10.12C252.948 10.2 252.661 10.2733 252.368 10.34V21.66C252.675 21.7133 252.961 21.7933 253.228 21.9C253.508 21.9933 253.768 22.1067 254.008 22.24V23H247.988V22.24C248.175 22.1467 248.395 22.0467 248.648 21.94C248.915 21.82 249.195 21.7267 249.488 21.66V14.08L249.688 12.5L248.788 14.08L243.668 21.22V21.66C243.975 21.7267 244.261 21.8133 244.528 21.92C244.795 22.0267 245.035 22.1333 245.248 22.24V23ZM262.394 9H267.754V9.76C267.527 9.90667 267.267 10.0333 266.974 10.14C266.681 10.2333 266.414 10.3 266.174 10.34L262.374 15.16C262.681 15.5867 263.041 16.0733 263.454 16.62C263.867 17.1533 264.307 17.7133 264.774 18.3C265.241 18.8733 265.721 19.46 266.214 20.06C266.707 20.6467 267.187 21.2067 267.654 21.74L268.614 22.32V23H265.134L264.334 22.44C264.014 22.04 263.674 21.6 263.314 21.12C262.967 20.6267 262.621 20.12 262.274 19.6C261.927 19.0667 261.587 18.5333 261.254 18C260.921 17.4667 260.607 16.9467 260.314 16.44H259.454V21.66C259.747 21.7133 260.014 21.7933 260.254 21.9C260.494 22.0067 260.701 22.12 260.874 22.24V23H254.814V22.24C255.081 22.1067 255.354 21.9933 255.634 21.9C255.914 21.7933 256.187 21.7133 256.454 21.66V10.34C256.147 10.3 255.847 10.2267 255.554 10.12C255.274 10.0133 255.027 9.89333 254.814 9.76V9H260.874V9.76C260.701 9.86667 260.487 9.97333 260.234 10.08C259.994 10.1867 259.734 10.2733 259.454 10.34V15.42L260.634 15.14L263.854 10.34C263.587 10.2867 263.321 10.2067 263.054 10.1C262.801 9.98 262.581 9.86667 262.394 9.76V9Z" fill="white"/>
<path d="M81.2139 35.2031V48H79.5439V35.2031H81.2139ZM85.3271 35.2031V36.5918H75.4395V35.2031H85.3271ZM89.0186 47.0156L91.6641 38.4902H93.4043L89.5898 49.4678C89.502 49.7021 89.3848 49.9541 89.2383 50.2236C89.0977 50.499 88.916 50.7598 88.6934 51.0059C88.4707 51.252 88.2012 51.4512 87.8848 51.6035C87.5742 51.7617 87.2021 51.8408 86.7686 51.8408C86.6396 51.8408 86.4756 51.8232 86.2764 51.7881C86.0771 51.7529 85.9365 51.7236 85.8545 51.7002L85.8457 50.3818C85.8926 50.3877 85.9658 50.3936 86.0654 50.3994C86.1709 50.4111 86.2441 50.417 86.2852 50.417C86.6543 50.417 86.9678 50.3672 87.2256 50.2676C87.4834 50.1738 87.7002 50.0127 87.876 49.7842C88.0576 49.5615 88.2129 49.2539 88.3418 48.8613L89.0186 47.0156ZM87.0762 38.4902L89.5459 45.873L89.9678 47.5869L88.7988 48.1846L85.3008 38.4902H87.0762ZM96.498 40.3184V51.6562H94.8633V38.4902H96.3574L96.498 40.3184ZM102.905 43.166V43.3506C102.905 44.042 102.823 44.6836 102.659 45.2754C102.495 45.8613 102.255 46.3711 101.938 46.8047C101.628 47.2383 101.244 47.5752 100.787 47.8154C100.33 48.0557 99.8057 48.1758 99.2139 48.1758C98.6104 48.1758 98.0771 48.0762 97.6143 47.877C97.1514 47.6777 96.7588 47.3877 96.4365 47.0068C96.1143 46.626 95.8564 46.1689 95.6631 45.6357C95.4756 45.1025 95.3467 44.502 95.2764 43.834V42.8496C95.3467 42.1465 95.4785 41.5166 95.6719 40.96C95.8652 40.4033 96.1201 39.9287 96.4365 39.5361C96.7588 39.1377 97.1484 38.8359 97.6055 38.6309C98.0625 38.4199 98.5898 38.3145 99.1875 38.3145C99.7852 38.3145 100.315 38.4316 100.778 38.666C101.241 38.8945 101.631 39.2227 101.947 39.6504C102.264 40.0781 102.501 40.5908 102.659 41.1885C102.823 41.7803 102.905 42.4395 102.905 43.166ZM101.271 43.3506V43.166C101.271 42.6914 101.221 42.2461 101.121 41.8301C101.021 41.4082 100.866 41.0391 100.655 40.7227C100.45 40.4004 100.187 40.1484 99.8643 39.9668C99.542 39.7793 99.1582 39.6855 98.7129 39.6855C98.3027 39.6855 97.9453 39.7559 97.6406 39.8965C97.3418 40.0371 97.0869 40.2275 96.876 40.4678C96.665 40.7021 96.4922 40.9717 96.3574 41.2764C96.2285 41.5752 96.1318 41.8857 96.0674 42.208V44.4844C96.1846 44.8945 96.3486 45.2812 96.5596 45.6445C96.7705 46.002 97.0518 46.292 97.4033 46.5146C97.7549 46.7314 98.1973 46.8398 98.7305 46.8398C99.1699 46.8398 99.5479 46.749 99.8643 46.5674C100.187 46.3799 100.45 46.125 100.655 45.8027C100.866 45.4805 101.021 45.1113 101.121 44.6953C101.221 44.2734 101.271 43.8252 101.271 43.3506ZM110.587 46.374V41.4785C110.587 41.1035 110.511 40.7783 110.358 40.5029C110.212 40.2217 109.989 40.0049 109.69 39.8525C109.392 39.7002 109.022 39.624 108.583 39.624C108.173 39.624 107.812 39.6943 107.502 39.835C107.197 39.9756 106.957 40.1602 106.781 40.3887C106.611 40.6172 106.526 40.8633 106.526 41.127H104.9C104.9 40.7871 104.988 40.4502 105.164 40.1162C105.34 39.7822 105.592 39.4805 105.92 39.2109C106.254 38.9355 106.652 38.7188 107.115 38.5605C107.584 38.3965 108.105 38.3145 108.68 38.3145C109.371 38.3145 109.98 38.4316 110.508 38.666C111.041 38.9004 111.457 39.2549 111.756 39.7295C112.061 40.1982 112.213 40.7871 112.213 41.4961V45.9258C112.213 46.2422 112.239 46.5791 112.292 46.9365C112.351 47.2939 112.436 47.6016 112.547 47.8594V48H110.851C110.769 47.8125 110.704 47.5635 110.657 47.2529C110.61 46.9365 110.587 46.6436 110.587 46.374ZM110.868 42.2344L110.886 43.377H109.242C108.779 43.377 108.366 43.415 108.003 43.4912C107.64 43.5615 107.335 43.6699 107.089 43.8164C106.843 43.9629 106.655 44.1475 106.526 44.3701C106.397 44.5869 106.333 44.8418 106.333 45.1348C106.333 45.4336 106.4 45.7061 106.535 45.9521C106.67 46.1982 106.872 46.3945 107.142 46.541C107.417 46.6816 107.754 46.752 108.152 46.752C108.65 46.752 109.09 46.6465 109.471 46.4355C109.852 46.2246 110.153 45.9668 110.376 45.6621C110.604 45.3574 110.728 45.0615 110.745 44.7744L111.439 45.5566C111.398 45.8027 111.287 46.0752 111.105 46.374C110.924 46.6729 110.681 46.96 110.376 47.2354C110.077 47.5049 109.72 47.7305 109.304 47.9121C108.894 48.0879 108.431 48.1758 107.915 48.1758C107.271 48.1758 106.705 48.0498 106.219 47.7979C105.738 47.5459 105.363 47.209 105.094 46.7871C104.83 46.3594 104.698 45.8818 104.698 45.3545C104.698 44.8447 104.798 44.3965 104.997 44.0098C105.196 43.6172 105.483 43.292 105.858 43.0342C106.233 42.7705 106.685 42.5713 107.212 42.4365C107.739 42.3018 108.328 42.2344 108.979 42.2344H110.868ZM120.914 38.4902V39.835H116.52V48H114.894V38.4902H120.914ZM126.1 48.1758C125.438 48.1758 124.837 48.0645 124.298 47.8418C123.765 47.6133 123.305 47.2939 122.918 46.8838C122.537 46.4736 122.244 45.9873 122.039 45.4248C121.834 44.8623 121.731 44.2471 121.731 43.5791V43.21C121.731 42.4365 121.846 41.748 122.074 41.1445C122.303 40.5352 122.613 40.0195 123.006 39.5977C123.398 39.1758 123.844 38.8564 124.342 38.6396C124.84 38.4229 125.355 38.3145 125.889 38.3145C126.568 38.3145 127.154 38.4316 127.646 38.666C128.145 38.9004 128.552 39.2285 128.868 39.6504C129.185 40.0664 129.419 40.5586 129.571 41.127C129.724 41.6895 129.8 42.3047 129.8 42.9727V43.7021H122.698V42.375H128.174V42.252C128.15 41.8301 128.062 41.4199 127.91 41.0215C127.764 40.623 127.529 40.2949 127.207 40.0371C126.885 39.7793 126.445 39.6504 125.889 39.6504C125.52 39.6504 125.18 39.7295 124.869 39.8877C124.559 40.04 124.292 40.2686 124.069 40.5732C123.847 40.8779 123.674 41.25 123.551 41.6895C123.428 42.1289 123.366 42.6357 123.366 43.21V43.5791C123.366 44.0303 123.428 44.4551 123.551 44.8535C123.68 45.2461 123.864 45.5918 124.104 45.8906C124.351 46.1895 124.646 46.4238 124.992 46.5938C125.344 46.7637 125.742 46.8486 126.188 46.8486C126.762 46.8486 127.248 46.7314 127.646 46.4971C128.045 46.2627 128.394 45.9492 128.692 45.5566L129.677 46.3389C129.472 46.6494 129.211 46.9453 128.895 47.2266C128.578 47.5078 128.188 47.7363 127.726 47.9121C127.269 48.0879 126.727 48.1758 126.1 48.1758ZM138.149 42.6123V43.9307H133.122V42.6123H138.149ZM133.465 38.4902V48H131.839V38.4902H133.465ZM139.468 38.4902V48H137.833V38.4902H139.468ZM145.963 38.4902V48H144.328V38.4902H145.963ZM149.153 38.4902V39.8086H141.199V38.4902H149.153ZM153.855 46.8398C154.242 46.8398 154.6 46.7607 154.928 46.6025C155.256 46.4443 155.525 46.2275 155.736 45.9521C155.947 45.6709 156.067 45.3516 156.097 44.9941H157.644C157.614 45.5566 157.424 46.0811 157.072 46.5674C156.727 47.0479 156.272 47.4375 155.71 47.7363C155.147 48.0293 154.529 48.1758 153.855 48.1758C153.141 48.1758 152.517 48.0498 151.983 47.7979C151.456 47.5459 151.017 47.2002 150.665 46.7607C150.319 46.3213 150.059 45.8174 149.883 45.249C149.713 44.6748 149.628 44.0684 149.628 43.4297V43.0605C149.628 42.4219 149.713 41.8184 149.883 41.25C150.059 40.6758 150.319 40.1689 150.665 39.7295C151.017 39.29 151.456 38.9443 151.983 38.6924C152.517 38.4404 153.141 38.3145 153.855 38.3145C154.6 38.3145 155.25 38.4668 155.807 38.7715C156.363 39.0703 156.8 39.4805 157.116 40.002C157.438 40.5176 157.614 41.1035 157.644 41.7598H156.097C156.067 41.3672 155.956 41.0127 155.763 40.6963C155.575 40.3799 155.317 40.1279 154.989 39.9404C154.667 39.7471 154.289 39.6504 153.855 39.6504C153.357 39.6504 152.938 39.75 152.599 39.9492C152.265 40.1426 151.998 40.4062 151.799 40.7402C151.605 41.0684 151.465 41.4346 151.377 41.8389C151.295 42.2373 151.254 42.6445 151.254 43.0605V43.4297C151.254 43.8457 151.295 44.2559 151.377 44.6602C151.459 45.0645 151.597 45.4307 151.79 45.7588C151.989 46.0869 152.256 46.3506 152.59 46.5498C152.93 46.7432 153.352 46.8398 153.855 46.8398ZM163.348 38.4902V48H161.713V38.4902H163.348ZM166.538 38.4902V39.8086H158.584V38.4902H166.538ZM172.603 43.8164H169.482L169.465 42.5156H172.014C172.518 42.5156 172.937 42.4658 173.271 42.3662C173.61 42.2666 173.865 42.1172 174.035 41.918C174.205 41.7188 174.29 41.4727 174.29 41.1797C174.29 40.9512 174.24 40.752 174.141 40.582C174.047 40.4062 173.903 40.2627 173.71 40.1514C173.517 40.0342 173.276 39.9492 172.989 39.8965C172.708 39.8379 172.377 39.8086 171.996 39.8086H169.913V48H168.287V38.4902H171.996C172.6 38.4902 173.142 38.543 173.622 38.6484C174.108 38.7539 174.521 38.915 174.861 39.1318C175.207 39.3428 175.471 39.6123 175.652 39.9404C175.834 40.2686 175.925 40.6553 175.925 41.1006C175.925 41.3877 175.866 41.6602 175.749 41.918C175.632 42.1758 175.459 42.4043 175.23 42.6035C175.002 42.8027 174.721 42.9668 174.387 43.0957C174.053 43.2188 173.669 43.2979 173.235 43.333L172.603 43.8164ZM172.603 48H168.894L169.702 46.6816H172.603C173.054 46.6816 173.429 46.626 173.728 46.5146C174.026 46.3975 174.249 46.2334 174.396 46.0225C174.548 45.8057 174.624 45.5479 174.624 45.249C174.624 44.9502 174.548 44.6953 174.396 44.4844C174.249 44.2676 174.026 44.1035 173.728 43.9922C173.429 43.875 173.054 43.8164 172.603 43.8164H170.133L170.15 42.5156H173.235L173.824 43.0078C174.346 43.0488 174.788 43.1777 175.151 43.3945C175.515 43.6113 175.79 43.8867 175.978 44.2207C176.165 44.5488 176.259 44.9062 176.259 45.293C176.259 45.7383 176.174 46.1309 176.004 46.4707C175.84 46.8105 175.6 47.0947 175.283 47.3232C174.967 47.5459 174.583 47.7158 174.132 47.833C173.681 47.9443 173.171 48 172.603 48ZM178.008 43.3506V43.1484C178.008 42.4629 178.107 41.8271 178.307 41.2412C178.506 40.6494 178.793 40.1367 179.168 39.7031C179.543 39.2637 179.997 38.9238 180.53 38.6836C181.063 38.4375 181.661 38.3145 182.323 38.3145C182.991 38.3145 183.592 38.4375 184.125 38.6836C184.664 38.9238 185.121 39.2637 185.496 39.7031C185.877 40.1367 186.167 40.6494 186.366 41.2412C186.565 41.8271 186.665 42.4629 186.665 43.1484V43.3506C186.665 44.0361 186.565 44.6719 186.366 45.2578C186.167 45.8438 185.877 46.3564 185.496 46.7959C185.121 47.2295 184.667 47.5693 184.134 47.8154C183.606 48.0557 183.009 48.1758 182.341 48.1758C181.673 48.1758 181.072 48.0557 180.539 47.8154C180.006 47.5693 179.549 47.2295 179.168 46.7959C178.793 46.3564 178.506 45.8438 178.307 45.2578C178.107 44.6719 178.008 44.0361 178.008 43.3506ZM179.634 43.1484V43.3506C179.634 43.8252 179.689 44.2734 179.801 44.6953C179.912 45.1113 180.079 45.4805 180.302 45.8027C180.53 46.125 180.814 46.3799 181.154 46.5674C181.494 46.749 181.89 46.8398 182.341 46.8398C182.786 46.8398 183.176 46.749 183.51 46.5674C183.85 46.3799 184.131 46.125 184.354 45.8027C184.576 45.4805 184.743 45.1113 184.854 44.6953C184.972 44.2734 185.03 43.8252 185.03 43.3506V43.1484C185.03 42.6797 184.972 42.2373 184.854 41.8213C184.743 41.3994 184.573 41.0273 184.345 40.7051C184.122 40.377 183.841 40.1191 183.501 39.9316C183.167 39.7441 182.774 39.6504 182.323 39.6504C181.878 39.6504 181.485 39.7441 181.146 39.9316C180.812 40.1191 180.53 40.377 180.302 40.7051C180.079 41.0273 179.912 41.3994 179.801 41.8213C179.689 42.2373 179.634 42.6797 179.634 43.1484Z" fill="white"/>
<circle cx="30" cy="30" r="29.5" stroke="white"/>
<path d="M63.2078 10.5356L61.0769 7.42788L59.2867 5.8765L59.2701 4.60788L58.4212 4L57.3559 6.26637L55.7459 5.22236L55.1886 5.78887L55.8148 7.0446L46.5703 15.8584L32.0115 22.9515L27.644 23.9181L26.6165 24.4447L23.9038 27.9511L22.7772 31.7466L22.5127 33.8448L23.0969 35.0974L23.1586 34.6399L24.1991 30.8548L23.2062 38.4985L22.0798 41.9438L20 52.4316H21.8884L21.3175 51.4826L22.3093 46.4718L26.0545 38.9928L25.3657 41.8043L28.2919 52.4316H30.2819L29.4497 51.3724L28.0537 47.2084L27.4639 40.9549L29.6087 36.0147L30.8934 34.7613L36.845 34.77L37.8978 35.8196L35.9732 50.1469L36.05 52.4316H37.9439L37.2455 51.3825L37.506 45.9273L40.4114 35.9413L40.7681 35.9438L47.1446 52.4316H49.0591L48.0865 51.4382L46.353 46.7498L43.6351 34.9205L44.3556 28.8518L44.0028 27.1587L44.3345 25.9676L56.7052 11.9222L58.5897 11.5542L63.3487 13.2859L63.6867 11.9442L63.2078 10.5356Z" fill="white"/>
</svg>
